# Blender v2.79 (sub 0) OBJ File: 'MyWals.blend'
# www.blender.org
mtllib DoreWallLateral.mtl
o DoreWallLateral_Shapr3D_Export_2023-01-26_23H01M.008
v 0.165311 -0.145024 0.532259
v 0.165311 -0.145024 -0.484229
v -0.204712 -0.145024 -0.484229
v -0.204712 -0.145024 0.532259
v -0.210551 -0.159246 1.379332
v -0.210551 -0.159246 -1.331303
v -0.221312 -0.255420 -1.331303
v -0.221312 -0.255420 1.379332
v -0.186389 -0.345673 -1.331303
v -0.186389 -0.345673 1.379332
v -0.113694 -0.409553 -1.331303
v -0.113694 -0.409553 1.379332
v -0.019701 -0.432587 -1.331303
v -0.019701 -0.432587 1.379332
v 0.074292 -0.409553 -1.331303
v 0.074292 -0.409553 1.379332
v 0.146987 -0.345673 -1.331303
v 0.146987 -0.345673 1.379332
v 0.181910 -0.255420 -1.331303
v 0.181910 -0.255420 1.379332
v 0.171150 -0.159246 -1.331303
v 0.117142 -0.078943 1.379332
v 0.171150 -0.159246 1.379332
v 0.117142 -0.078943 -1.331303
v 0.117142 -0.078943 -0.484229
v -0.156544 -0.078943 -1.331303
v -0.156544 -0.078943 1.379332
v -0.156544 -0.078943 0.532259
v -0.156544 -0.078943 -0.484229
v 0.117142 -0.078943 0.532259
v 0.162905 -0.010529 -1.331303
v 0.162905 -0.010529 -0.484229
v 0.176635 0.070627 -1.331303
v 0.176635 0.070627 -0.484229
v 0.155925 0.150287 -1.331303
v 0.155925 0.150287 -0.484229
v 0.104406 0.214479 -1.331303
v 0.104406 0.214479 -0.484229
v -0.143807 0.214479 -0.484229
v -0.143807 0.214479 -1.331303
v -0.195326 0.150287 -1.331303
v -0.195326 0.150287 -0.484229
v -0.216037 0.070627 -1.331303
v -0.216037 0.070627 -0.484229
v -0.202307 -0.010529 -1.331303
v -0.202307 -0.010529 -0.484229
v 0.151834 0.280665 -1.331303
v 0.151834 0.280665 -0.484229
v 0.166514 0.360756 -1.331303
v 0.166514 0.360756 -0.484229
v 0.145644 0.439460 -1.331303
v 0.145644 0.439460 -0.484229
v 0.093209 0.501754 -1.331303
v 0.093209 0.501754 -0.484229
v 0.162905 -0.010529 0.532259
v 0.162905 -0.010529 1.379332
v 0.176635 0.070627 0.532259
v 0.176635 0.070627 1.379332
v 0.155925 0.150287 0.532259
v 0.155925 0.150287 1.379332
v 0.104406 0.214479 0.532259
v 0.104406 0.214479 1.379332
v 0.151834 0.280665 0.532259
v 0.151834 0.280665 1.379332
v 0.166514 0.360756 0.532259
v 0.166514 0.360756 1.379332
v 0.145644 0.439460 0.532259
v 0.145644 0.439460 1.379332
v 0.093209 0.501754 0.532259
v 0.093209 0.501754 1.379332
v 0.152613 0.571220 0.532259
v 0.152613 0.571220 1.379332
v 0.173424 0.660221 0.532259
v 0.173424 0.660221 1.379332
v 0.150979 0.748825 0.532259
v 0.150979 0.748825 1.379332
v 0.090305 0.817185 0.532259
v 0.090305 0.817185 1.379332
v 0.144013 0.881691 0.532259
v 0.144013 0.881691 1.379332
v 0.163267 0.963390 0.532259
v 0.163267 0.963390 1.379332
v 0.144013 1.045090 0.532259
v 0.144013 1.045090 1.379332
v 0.090305 1.109595 0.532259
v 0.090305 1.109595 1.379332
v -0.143807 0.214479 1.379332
v -0.143807 0.214479 0.532259
v -0.195326 0.150287 0.532259
v -0.195326 0.150287 1.379332
v -0.216037 0.070627 0.532259
v -0.216037 0.070627 1.379332
v -0.202307 -0.010529 0.532259
v -0.202307 -0.010529 1.379332
v -0.132611 0.501754 1.379332
v -0.132611 0.501754 0.532259
v -0.185046 0.439460 0.532259
v -0.185046 0.439460 1.379332
v -0.205916 0.360756 0.532259
v -0.205916 0.360756 1.379332
v -0.191235 0.280665 0.532259
v -0.191235 0.280665 1.379332
v -0.129707 0.817185 1.379332
v -0.129707 0.817185 0.532259
v -0.190380 0.748825 0.532259
v -0.190380 0.748825 1.379332
v -0.212825 0.660221 0.532259
v -0.212825 0.660221 1.379332
v -0.192015 0.571220 0.532259
v -0.192015 0.571220 1.379332
v -0.129707 1.109595 1.379332
v -0.129707 1.109595 0.532259
v -0.183415 1.045090 0.532259
v -0.183415 1.045090 1.379332
v -0.202669 0.963390 0.532259
v -0.202669 0.963390 1.379332
v -0.183415 0.881691 0.532259
v -0.183415 0.881691 1.379332
v -0.189531 1.360304 0.532259
v 0.150129 1.360304 0.532259
v 0.173424 1.270129 0.532259
v -0.146985 1.413591 0.532259
v 0.107583 1.413591 0.532259
v 0.151807 1.179537 0.532259
v -0.191208 1.179537 0.532259
v -0.212825 1.270129 0.532259
v -0.146985 1.413591 -0.484229
v 0.107583 1.413591 -0.484229
v -0.132611 0.501754 -0.484229
v -0.132611 0.501754 -1.331303
v -0.185046 0.439460 -1.331303
v -0.185046 0.439460 -0.484229
v -0.205916 0.360756 -1.331303
v -0.205916 0.360756 -0.484229
v -0.191235 0.280665 -1.331303
v -0.191235 0.280665 -0.484229
v -0.129707 0.817185 -0.484229
v -0.129707 0.817185 -1.331303
v -0.190380 0.748825 -1.331303
v -0.190380 0.748825 -0.484229
v -0.212825 0.660221 -1.331303
v -0.212825 0.660221 -0.484229
v -0.192015 0.571220 -1.331303
v -0.192015 0.571220 -0.484229
v -0.129707 1.109595 -0.484229
v -0.129707 1.109595 -1.331303
v -0.183415 1.045090 -1.331303
v -0.183415 1.045090 -0.484229
v -0.202669 0.963390 -1.331303
v -0.202669 0.963390 -0.484229
v -0.183415 0.881691 -1.331303
v -0.183415 0.881691 -0.484229
v 0.090305 0.817185 -0.484229
v 0.150979 0.748825 -0.484229
v -0.191208 1.179537 -0.484229
v 0.090305 1.109595 -0.484229
v 0.151807 1.179537 -0.484229
v -0.189531 1.360304 -0.484229
v -0.212825 1.270129 -0.484229
v 0.150129 1.360304 -0.484229
v 0.173424 1.270129 -0.484229
v 0.144013 0.881691 -0.484229
v 0.144013 1.045090 -0.484229
v 0.152613 0.571220 -0.484229
v 0.163267 0.963390 -0.484229
v 0.173424 0.660221 -0.484229
v 0.090305 0.817185 -1.331303
v 0.144013 0.881691 -1.331303
v 0.163267 0.963390 -1.331303
v 0.144013 1.045090 -1.331303
v 0.090305 1.109595 -1.331303
v 0.152613 0.571220 -1.331303
v 0.173424 0.660221 -1.331303
v 0.150979 0.748825 -1.331303
v -0.191208 1.179537 -1.331303
v -0.212825 1.270129 -1.331303
v -0.189531 1.360304 -1.331303
v -0.189531 1.360304 1.379332
v -0.126742 1.429092 1.379332
v -0.126742 1.429092 -1.331303
v -0.212825 1.270129 1.379332
v -0.191208 1.179537 1.379332
v 0.173424 1.270129 -1.331303
v 0.150129 1.360304 -1.331303
v 0.151807 1.179537 -1.331303
v 0.151807 1.179537 1.379332
v 0.173424 1.270129 1.379332
v 0.087341 1.429092 -1.331303
v 0.087341 1.429092 1.379332
v 0.150129 1.360304 1.379332
v 0.157272 1.780460 -1.331303
v 0.101621 1.705683 -1.331303
v -0.141023 1.705683 -1.331303
v -0.179147 1.960439 -1.331303
v -0.110116 2.023075 -1.331303
v -0.185883 1.641345 -1.331303
v 0.146481 1.641345 -1.331303
v 0.159640 1.564023 -1.331303
v 0.138588 1.488468 -1.331303
v -0.177989 1.488468 -1.331303
v -0.199041 1.564023 -1.331303
v -0.196673 1.780460 -1.331303
v 0.070714 2.023075 -1.331303
v 0.139746 1.960439 -1.331303
v -0.019701 2.045740 -1.331303
v -0.210469 1.872646 -1.331303
v 0.171068 1.872646 -1.331303
v 0.157272 1.780460 1.379332
v -0.019701 2.045740 1.379332
v -0.110116 2.023075 1.379332
v -0.196673 1.780460 1.379332
v -0.141023 1.705683 1.379332
v 0.101621 1.705683 1.379332
v 0.070714 2.023075 1.379332
v 0.171068 1.872646 1.379332
v 0.139746 1.960439 1.379332
v -0.210469 1.872646 1.379332
v -0.177989 1.488468 1.379332
v 0.138588 1.488468 1.379332
v 0.159640 1.564023 1.379332
v 0.146481 1.641345 1.379332
v -0.185883 1.641345 1.379332
v -0.199041 1.564023 1.379332
v -0.179147 1.960439 1.379332
v 0.183597 -0.004396 -0.348697
v -0.222998 -0.004396 -0.348697
v -0.222998 -0.004396 0.396727
v 0.183597 -0.004396 0.396727
v -0.222998 1.283156 0.396727
v 0.183597 1.283156 0.396727
v -0.222998 1.283156 -0.348697
v 0.183597 1.283156 -0.348697
v 0.183597 1.413591 0.532259
v 0.183597 -0.145024 0.532259
v 0.183597 -0.145024 -0.484229
v 0.183597 1.413591 -0.484229
v -0.222998 1.413591 0.532259
v -0.222998 1.413591 -0.484229
v -0.222998 -0.145024 -0.484229
v -0.222998 -0.145024 0.532259
vn 0.0000 1.0000 0.0000
vn -0.9938 0.1112 0.0000
vn -0.9326 -0.3609 0.0000
vn -0.6601 -0.7512 0.0000
vn -0.2380 -0.9713 0.0000
vn 0.2380 -0.9713 0.0000
vn 0.6601 -0.7512 0.0000
vn 0.9326 -0.3609 0.0000
vn 0.9938 0.1112 0.0000
vn 0.8298 0.5581 0.0037
vn 0.9251 0.3798 0.0000
vn 0.8081 0.5891 0.0000
vn 0.8298 0.5581 -0.0037
vn -0.8298 0.5581 -0.0037
vn -0.9251 0.3798 0.0000
vn -0.8081 0.5891 0.0000
vn -0.8298 0.5581 0.0037
vn 0.8312 -0.5560 0.0000
vn 0.9860 -0.1668 0.0000
vn 0.9678 0.2516 0.0000
vn 0.7799 0.6259 0.0000
vn -0.7799 0.6259 0.0000
vn -0.9678 0.2516 0.0000
vn -0.9860 -0.1668 0.0000
vn -0.8312 -0.5560 0.0000
vn 0.8128 -0.5825 0.0000
vn 0.9836 -0.1803 0.0000
vn 0.9666 0.2563 0.0000
vn 0.7650 0.6440 0.0000
vn 0.7600 -0.6499 0.0000
vn 0.9737 -0.2277 0.0000
vn 0.9694 0.2456 0.0000
vn 0.7479 0.6638 0.0000
vn 0.7685 -0.6399 0.0000
vn 0.9733 -0.2294 0.0000
vn 0.9733 0.2294 0.0000
vn 0.7685 0.6399 0.0000
vn -0.7650 0.6440 0.0000
vn -0.9666 0.2563 0.0000
vn -0.9836 -0.1803 0.0000
vn -0.8128 -0.5825 0.0000
vn -0.7479 0.6638 0.0000
vn -0.9694 0.2456 0.0000
vn -0.9737 -0.2277 0.0000
vn -0.7600 -0.6499 0.0000
vn -0.7685 0.6399 0.0000
vn -0.9733 0.2294 0.0000
vn -0.9733 -0.2294 0.0000
vn -0.7685 -0.6399 0.0000
vn 0.0000 0.0000 -1.0000
vn 0.0000 -1.0000 0.0000
vn 0.0000 0.0000 1.0000
vn -0.7510 -0.6603 0.0000
vn -0.9727 -0.2321 0.0000
vn -0.9682 0.2501 0.0000
vn -0.7386 0.6742 0.0053
vn -0.6080 0.7940 0.0000
vn -0.7815 0.6239 0.0000
vn -0.7386 0.6742 -0.0053
vn 0.9682 0.2501 0.0000
vn 0.9727 -0.2321 0.0000
vn 0.7510 -0.6603 0.0000
vn 0.7386 0.6742 -0.0053
vn 0.6080 0.7940 0.0000
vn 0.7815 0.6239 0.0000
vn 0.7386 0.6742 0.0053
vn -0.8203 0.5719 0.0000
vn -0.9858 0.1678 0.0000
vn -0.9633 -0.2684 0.0000
vn -0.7570 -0.6534 0.0000
vn 0.7570 -0.6534 0.0000
vn 0.9633 -0.2684 0.0000
vn 0.9858 0.1678 0.0000
vn 0.8203 0.5719 0.0000
vn 0.8022 -0.5970 0.0000
vn 0.9890 -0.1480 0.0000
vn 0.9419 0.3360 0.0000
vn 0.6720 0.7406 0.0000
vn 0.2432 0.9700 0.0000
vn -0.2432 0.9700 0.0000
vn -0.6720 0.7406 0.0000
vn -0.9419 0.3360 0.0000
vn -0.9890 -0.1480 0.0000
vn -0.8022 -0.5970 0.0000
vn 1.0000 0.0000 0.0000
vn -1.0000 0.0000 0.0000
usemtl None
s off
f 1//1 2//1 3//1
f 3//1 4//1 1//1
f 5//2 6//2 7//2
f 8//3 7//3 9//3
f 10//4 9//4 11//4
f 12//5 11//5 13//5
f 14//6 13//6 15//6
f 16//7 15//7 17//7
f 18//8 17//8 19//8
f 20//9 19//9 21//9
f 22//10 23//10 1//10
f 21//11 2//11 1//11
f 1//11 23//11 21//11
f 24//12 25//12 2//12
f 2//13 21//13 24//13
f 26//14 6//14 3//14
f 5//15 4//15 3//15
f 3//15 6//15 5//15
f 27//16 28//16 4//16
f 4//17 5//17 27//17
f 3//16 29//16 26//16
f 1//12 30//12 22//12
f 21//9 23//9 20//9
f 19//8 20//8 18//8
f 17//7 18//7 16//7
f 15//6 16//6 14//6
f 13//5 14//5 12//5
f 11//4 12//4 10//4
f 9//3 10//3 8//3
f 7//2 8//2 5//2
f 25//18 24//18 31//18
f 32//19 31//19 33//19
f 34//20 33//20 35//20
f 36//21 35//21 37//21
f 37//21 38//21 36//21
f 35//20 36//20 34//20
f 33//19 34//19 32//19
f 31//18 32//18 25//18
f 39//22 40//22 41//22
f 42//23 41//23 43//23
f 44//24 43//24 45//24
f 46//25 45//25 26//25
f 26//25 29//25 46//25
f 45//24 46//24 44//24
f 43//23 44//23 42//23
f 41//22 42//22 39//22
f 38//26 37//26 47//26
f 48//27 47//27 49//27
f 50//28 49//28 51//28
f 52//29 51//29 53//29
f 53//29 54//29 52//29
f 51//28 52//28 50//28
f 49//27 50//27 48//27
f 47//26 48//26 38//26
f 22//18 30//18 55//18
f 56//19 55//19 57//19
f 58//20 57//20 59//20
f 60//21 59//21 61//21
f 61//21 62//21 60//21
f 59//20 60//20 58//20
f 57//19 58//19 56//19
f 55//18 56//18 22//18
f 62//26 61//26 63//26
f 64//27 63//27 65//27
f 66//28 65//28 67//28
f 68//29 67//29 69//29
f 69//29 70//29 68//29
f 67//28 68//28 66//28
f 65//27 66//27 64//27
f 63//26 64//26 62//26
f 70//30 69//30 71//30
f 72//31 71//31 73//31
f 74//32 73//32 75//32
f 76//33 75//33 77//33
f 77//33 78//33 76//33
f 75//32 76//32 74//32
f 73//31 74//31 72//31
f 71//30 72//30 70//30
f 78//34 77//34 79//34
f 80//35 79//35 81//35
f 82//36 81//36 83//36
f 84//37 83//37 85//37
f 85//37 86//37 84//37
f 83//36 84//36 82//36
f 81//35 82//35 80//35
f 79//34 80//34 78//34
f 87//22 88//22 89//22
f 90//23 89//23 91//23
f 92//24 91//24 93//24
f 94//25 93//25 28//25
f 28//25 27//25 94//25
f 93//24 94//24 92//24
f 91//23 92//23 90//23
f 89//22 90//22 87//22
f 95//38 96//38 97//38
f 98//39 97//39 99//39
f 100//40 99//40 101//40
f 102//41 101//41 88//41
f 88//41 87//41 102//41
f 101//40 102//40 100//40
f 99//39 100//39 98//39
f 97//38 98//38 95//38
f 103//42 104//42 105//42
f 106//43 105//43 107//43
f 108//44 107//44 109//44
f 110//45 109//45 96//45
f 96//45 95//45 110//45
f 109//44 110//44 108//44
f 107//43 108//43 106//43
f 105//42 106//42 103//42
f 111//46 112//46 113//46
f 114//47 113//47 115//47
f 116//48 115//48 117//48
f 118//49 117//49 104//49
f 104//49 103//49 118//49
f 117//48 118//48 116//48
f 115//47 116//47 114//47
f 113//46 114//46 111//46
f 89//50 88//50 61//50
f 55//50 30//50 28//50
f 61//50 59//50 89//50
f 28//50 93//50 55//50
f 59//50 57//50 89//50
f 93//50 91//50 55//50
f 97//50 67//50 65//50
f 97//50 96//50 69//50
f 63//50 101//50 99//50
f 101//50 63//50 61//50
f 91//50 89//50 55//50
f 1//50 4//50 28//50
f 69//50 67//50 97//50
f 61//50 88//50 101//50
f 109//50 71//50 69//50
f 109//50 75//50 73//50
f 105//50 104//50 77//50
f 75//50 109//50 107//50
f 79//50 117//50 115//50
f 79//50 77//50 104//50
f 113//50 83//50 81//50
f 113//50 112//50 85//50
f 119//50 120//50 121//50
f 119//50 122//50 123//50
f 124//50 125//50 126//50
f 125//50 124//50 85//50
f 28//50 30//50 1//50
f 99//50 97//50 63//50
f 73//50 71//50 109//50
f 107//50 105//50 75//50
f 104//50 117//50 79//50
f 85//50 83//50 113//50
f 123//50 120//50 119//50
f 85//50 112//50 125//50
f 65//50 63//50 97//50
f 77//50 75//50 105//50
f 81//50 79//50 113//50
f 126//50 119//50 124//50
f 69//50 96//50 109//50
f 121//50 124//50 119//50
f 115//50 113//50 79//50
f 57//50 55//50 89//50
f 122//51 127//51 128//51
f 128//51 123//51 122//51
f 129//38 130//38 131//38
f 132//39 131//39 133//39
f 134//40 133//40 135//40
f 136//41 135//41 40//41
f 40//41 39//41 136//41
f 135//40 136//40 134//40
f 133//39 134//39 132//39
f 131//38 132//38 129//38
f 137//42 138//42 139//42
f 140//43 139//43 141//43
f 142//44 141//44 143//44
f 144//45 143//45 130//45
f 130//45 129//45 144//45
f 143//44 144//44 142//44
f 141//43 142//43 140//43
f 139//42 140//42 137//42
f 145//46 146//46 147//46
f 148//47 147//47 149//47
f 150//48 149//48 151//48
f 152//49 151//49 138//49
f 138//49 137//49 152//49
f 151//48 152//48 150//48
f 149//47 150//47 148//47
f 147//46 148//46 145//46
f 32//52 46//52 29//52
f 42//52 36//52 38//52
f 136//52 39//52 38//52
f 32//52 44//52 46//52
f 42//52 34//52 36//52
f 152//52 137//52 153//52
f 144//52 129//52 54//52
f 140//52 154//52 153//52
f 38//52 48//52 136//52
f 52//52 132//52 134//52
f 132//52 52//52 54//52
f 32//52 42//52 44//52
f 42//52 32//52 34//52
f 155//52 145//52 156//52
f 157//52 158//52 159//52
f 158//52 160//52 128//52
f 158//52 157//52 161//52
f 153//52 162//52 152//52
f 163//52 148//52 150//52
f 148//52 163//52 156//52
f 164//52 142//52 144//52
f 153//52 137//52 140//52
f 48//52 50//52 136//52
f 54//52 129//52 132//52
f 38//52 39//52 42//52
f 3//52 2//52 25//52
f 159//52 155//52 157//52
f 161//52 160//52 158//52
f 162//52 165//52 152//52
f 156//52 145//52 148//52
f 54//52 164//52 144//52
f 142//52 166//52 154//52
f 134//52 136//52 52//52
f 25//52 29//52 3//52
f 128//52 127//52 158//52
f 150//52 152//52 163//52
f 140//52 142//52 154//52
f 29//52 25//52 32//52
f 165//52 163//52 152//52
f 50//52 52//52 136//52
f 164//52 166//52 142//52
f 156//52 157//52 155//52
f 153//34 167//34 168//34
f 162//35 168//35 169//35
f 165//36 169//36 170//36
f 163//37 170//37 171//37
f 171//37 156//37 163//37
f 170//36 163//36 165//36
f 169//35 165//35 162//35
f 168//34 162//34 153//34
f 54//30 53//30 172//30
f 164//31 172//31 173//31
f 166//32 173//32 174//32
f 154//33 174//33 167//33
f 167//33 153//33 154//33
f 174//32 154//32 166//32
f 173//31 166//31 164//31
f 172//30 164//30 54//30
f 155//53 175//53 146//53
f 159//54 176//54 175//54
f 158//55 177//55 176//55
f 178//56 179//56 122//56
f 179//57 180//57 127//57
f 127//57 122//57 179//57
f 177//58 158//58 127//58
f 127//59 180//59 177//59
f 178//55 119//55 126//55
f 181//54 126//54 125//54
f 182//53 125//53 112//53
f 112//53 111//53 182//53
f 125//54 182//54 181//54
f 126//55 181//55 178//55
f 122//58 119//58 178//58
f 176//55 159//55 158//55
f 175//54 155//54 159//54
f 146//53 145//53 155//53
f 161//60 183//60 184//60
f 157//61 185//61 183//61
f 156//62 171//62 185//62
f 86//62 85//62 124//62
f 186//61 124//61 121//61
f 187//60 121//60 120//60
f 184//63 188//63 128//63
f 189//64 123//64 128//64
f 128//64 188//64 189//64
f 190//65 120//65 123//65
f 123//66 189//66 190//66
f 128//65 160//65 184//65
f 120//60 190//60 187//60
f 121//61 187//61 186//61
f 124//62 186//62 86//62
f 185//62 157//62 156//62
f 183//61 161//61 157//61
f 184//60 160//60 161//60
f 6//50 11//50 9//50
f 6//50 13//50 11//50
f 6//50 17//50 15//50
f 41//50 40//50 37//50
f 31//50 24//50 26//50
f 6//50 26//50 24//50
f 15//50 13//50 6//50
f 37//50 35//50 41//50
f 26//50 45//50 31//50
f 131//50 130//50 53//50
f 24//50 21//50 6//50
f 6//50 19//50 17//50
f 35//50 33//50 41//50
f 45//50 43//50 31//50
f 53//50 51//50 131//50
f 47//50 135//50 133//50
f 135//50 47//50 37//50
f 147//50 146//50 171//50
f 175//50 185//50 171//50
f 9//50 7//50 6//50
f 43//50 41//50 31//50
f 51//50 49//50 131//50
f 37//50 40//50 135//50
f 139//50 174//50 173//50
f 139//50 138//50 167//50
f 172//50 143//50 141//50
f 143//50 172//50 53//50
f 171//50 170//50 147//50
f 168//50 151//50 149//50
f 151//50 168//50 167//50
f 177//50 180//50 188//50
f 184//50 175//50 176//50
f 175//50 183//50 185//50
f 191//50 192//50 193//50
f 191//50 194//50 195//50
f 33//50 31//50 41//50
f 133//50 131//50 47//50
f 167//50 174//50 139//50
f 53//50 130//50 143//50
f 170//50 169//50 147//50
f 167//50 138//50 151//50
f 176//50 177//50 184//50
f 175//50 184//50 183//50
f 196//50 197//50 198//50
f 196//50 193//50 192//50
f 199//50 200//50 201//50
f 200//50 199//50 188//50
f 193//50 202//50 191//50
f 191//50 203//50 204//50
f 195//50 205//50 191//50
f 49//50 47//50 131//50
f 141//50 139//50 172//50
f 149//50 147//50 168//50
f 171//50 146//50 175//50
f 192//50 197//50 196//50
f 188//50 180//50 200//50
f 202//50 206//50 191//50
f 205//50 203//50 191//50
f 173//50 172//50 139//50
f 188//50 184//50 177//50
f 201//50 196//50 199//50
f 204//50 207//50 191//50
f 169//50 168//50 147//50
f 206//50 194//50 191//50
f 198//50 199//50 196//50
f 21//50 19//50 6//50
f 5//52 8//52 10//52
f 94//52 27//52 22//52
f 5//52 14//52 16//52
f 10//52 12//52 5//52
f 98//52 68//52 70//52
f 22//52 56//52 94//52
f 60//52 90//52 92//52
f 90//52 60//52 62//52
f 12//52 14//52 5//52
f 5//52 23//52 22//52
f 182//52 111//52 86//52
f 106//52 76//52 78//52
f 102//52 87//52 62//52
f 64//52 98//52 100//52
f 98//52 66//52 68//52
f 56//52 58//52 94//52
f 62//52 87//52 90//52
f 16//52 18//52 5//52
f 5//52 20//52 23//52
f 208//52 209//52 210//52
f 211//52 212//52 213//52
f 86//52 186//52 182//52
f 190//52 178//52 181//52
f 178//52 190//52 189//52
f 114//52 84//52 86//52
f 114//52 80//52 82//52
f 118//52 103//52 78//52
f 80//52 114//52 116//52
f 110//52 72//52 74//52
f 110//52 95//52 70//52
f 78//52 103//52 106//52
f 100//52 102//52 64//52
f 98//52 64//52 66//52
f 92//52 94//52 60//52
f 22//52 27//52 5//52
f 208//52 214//52 209//52
f 208//52 215//52 216//52
f 208//52 217//52 211//52
f 218//52 219//52 220//52
f 218//52 179//52 189//52
f 221//52 222//52 223//52
f 222//52 221//52 213//52
f 186//52 187//52 182//52
f 189//52 179//52 178//52
f 82//52 84//52 114//52
f 116//52 118//52 80//52
f 70//52 72//52 110//52
f 106//52 108//52 76//52
f 70//52 95//52 98//52
f 18//52 20//52 5//52
f 216//52 214//52 208//52
f 208//52 224//52 217//52
f 189//52 219//52 218//52
f 213//52 212//52 222//52
f 181//52 182//52 190//52
f 78//52 80//52 118//52
f 108//52 110//52 76//52
f 58//52 60//52 94//52
f 213//52 208//52 211//52
f 223//52 218//52 221//52
f 86//52 111//52 114//52
f 62//52 64//52 102//52
f 220//52 221//52 218//52
f 74//52 76//52 110//52
f 187//52 190//52 182//52
f 210//52 224//52 208//52
f 212//67 193//67 196//67
f 222//68 196//68 201//68
f 223//69 201//69 200//69
f 218//70 200//70 180//70
f 180//70 179//70 218//70
f 200//69 218//69 223//69
f 201//68 223//68 222//68
f 196//67 222//67 212//67
f 189//71 188//71 199//71
f 219//72 199//72 198//72
f 220//73 198//73 197//73
f 221//74 197//74 192//74
f 192//74 213//74 221//74
f 197//73 221//73 220//73
f 198//72 220//72 219//72
f 199//71 219//71 189//71
f 213//75 192//75 191//75
f 208//76 191//76 207//76
f 215//77 207//77 204//77
f 216//78 204//78 203//78
f 214//79 203//79 205//79
f 209//80 205//80 195//80
f 210//81 195//81 194//81
f 224//82 194//82 206//82
f 217//83 206//83 202//83
f 211//84 202//84 193//84
f 193//84 212//84 211//84
f 202//83 211//83 217//83
f 206//82 217//82 224//82
f 194//81 224//81 210//81
f 195//80 210//80 209//80
f 205//79 209//79 214//79
f 203//78 214//78 216//78
f 204//77 216//77 215//77
f 207//76 215//76 208//76
f 191//75 208//75 213//75
f 225//1 226//1 227//1
f 227//1 228//1 225//1
f 228//50 227//50 229//50
f 229//50 230//50 228//50
f 230//51 229//51 231//51
f 231//51 232//51 230//51
f 232//52 231//52 226//52
f 226//52 225//52 232//52
f 233//85 230//85 232//85
f 233//85 234//85 228//85
f 235//85 225//85 228//85
f 236//85 232//85 225//85
f 228//85 230//85 233//85
f 225//85 235//85 236//85
f 228//85 234//85 235//85
f 232//85 236//85 233//85
f 237//86 238//86 231//86
f 238//86 239//86 226//86
f 239//86 240//86 227//86
f 237//86 229//86 227//86
f 226//86 231//86 238//86
f 227//86 240//86 237//86
f 227//86 226//86 239//86
f 231//86 229//86 237//86
f 234//51 240//51 239//51
f 239//51 235//51 234//51
f 235//50 239//50 238//50
f 238//50 236//50 235//50
f 236//1 238//1 237//1
f 237//1 233//1 236//1
f 233//52 237//52 240//52
f 240//52 234//52 233//52
