# Blender v2.79 (sub 0) OBJ File: 'MyWals.blend'
# www.blender.org
mtllib Wall.mtl
o Wall_Shapr3D_Export_2023-01-26_23H01M.005
v -1.352911 0.350011 0.125796
v 1.357723 0.350011 0.125796
v 1.357723 0.416197 0.173224
v -1.352911 0.416197 0.173224
v 1.357723 0.496287 0.187904
v -1.352911 0.496287 0.187904
v 1.357723 0.574992 0.167035
v -1.352911 0.574992 0.167035
v 1.357723 0.637286 0.114599
v -1.352911 0.637286 0.114599
v -1.352911 0.056588 0.138533
v 1.357723 0.056588 0.138533
v 1.357723 0.125003 0.184296
v -1.352911 0.125003 0.184296
v 1.357723 0.206158 0.198026
v -1.352911 0.206158 0.198026
v 1.357723 0.285819 0.177315
v -1.352911 0.285819 0.177315
v -1.352911 0.056588 -0.135154
v 1.357723 0.056588 -0.135154
v 1.357723 -0.023714 -0.189161
v -1.352911 -0.023714 -0.189161
v 1.357723 -0.119888 -0.199922
v -1.352911 -0.119888 -0.199922
v 1.357723 -0.210141 -0.164998
v -1.352911 -0.210141 -0.164998
v 1.357723 -0.274022 -0.092304
v -1.352911 -0.274022 -0.092304
v 1.357723 -0.297055 0.001690
v -1.352911 -0.297055 0.001690
v 1.357723 -0.274022 0.095683
v -1.352911 -0.274022 0.095683
v 1.357723 -0.210141 0.168377
v -1.352911 -0.210141 0.168377
v 1.357723 -0.119888 0.203301
v -1.352911 -0.119888 0.203301
v 1.357723 -0.023714 0.192540
v -1.352911 -0.023714 0.192540
v -1.352911 0.350011 -0.122417
v 1.357723 0.350011 -0.122417
v 1.357723 0.285819 -0.173936
v -1.352911 0.285819 -0.173936
v 1.357723 0.206158 -0.194646
v -1.352911 0.206158 -0.194646
v 1.357723 0.125003 -0.180916
v -1.352911 0.125003 -0.180916
v -1.352911 0.637286 -0.111220
v 1.357723 0.637286 -0.111220
v 1.357723 0.574992 -0.163655
v -1.352911 0.574992 -0.163655
v 1.357723 0.496287 -0.184525
v -1.352911 0.496287 -0.184525
v 1.357723 0.416197 -0.169845
v -1.352911 0.416197 -0.169845
v -1.352911 0.952717 -0.108317
v 1.357723 0.952717 -0.108317
v 1.357723 0.884357 -0.168990
v -1.352911 0.884357 -0.168990
v 1.357723 0.795753 -0.191435
v -1.352911 0.795753 -0.191435
v 1.357723 0.706751 -0.170625
v -1.352911 0.706751 -0.170625
v -1.352911 1.245127 -0.108317
v 1.357723 1.245127 -0.108317
v 1.357723 1.180621 -0.162025
v -1.352911 1.180621 -0.162025
v 1.357723 1.098922 -0.181278
v -1.352911 1.098922 -0.181278
v 1.357723 1.017223 -0.162025
v -1.352911 1.017223 -0.162025
v -1.352911 1.564624 -0.105352
v 1.357723 1.564624 -0.105352
v 1.357723 1.495836 -0.168140
v -1.352911 1.495836 -0.168140
v 1.357723 1.405660 -0.191435
v -1.352911 1.405660 -0.191435
v 1.357723 1.315068 -0.169818
v -1.352911 1.315068 -0.169818
v -1.352911 1.564624 0.108731
v 1.357723 1.564624 0.108731
v 1.357723 1.626349 0.161214
v -1.352911 1.626349 0.161214
v 1.357723 1.704860 0.181226
v -1.352911 1.704860 0.181226
v 1.357723 1.784177 0.164691
v -1.352911 1.784177 0.164691
v 1.357723 1.848153 0.114976
v -1.352911 1.848153 0.114976
v 1.357723 1.883765 0.042201
v -1.352911 1.883765 0.042201
v 1.357723 1.883765 -0.038821
v -1.352911 1.883765 -0.038821
v 1.357723 1.848153 -0.111596
v -1.352911 1.848153 -0.111596
v 1.357723 1.784177 -0.161312
v -1.352911 1.784177 -0.161312
v 1.357723 1.704860 -0.177846
v -1.352911 1.704860 -0.177846
v 1.357723 1.626349 -0.157835
v -1.352911 1.626349 -0.157835
v 1.357723 1.017223 0.165404
v 1.357723 0.952717 0.111696
v 1.357723 1.180621 0.165404
v 1.357723 1.315068 0.173197
v 1.357723 1.245127 0.111696
v 1.357723 0.706751 0.174004
v 1.357723 1.495836 0.171520
v 1.357723 1.405660 0.194814
v 1.357723 0.884357 0.172369
v 1.357723 1.098922 0.184657
v 1.357723 0.795753 0.194814
v -1.352911 0.706751 0.174004
v -1.352911 0.884357 0.172369
v -1.352911 0.952717 0.111696
v -1.352911 1.495836 0.171520
v -1.352911 1.017223 0.165404
v -1.352911 1.180621 0.165404
v -1.352911 1.245127 0.111696
v -1.352911 1.315068 0.173197
v -1.352911 1.405660 0.194814
v -1.352911 1.098922 0.184657
v -1.352911 0.795753 0.194814
vn 0.0000 -0.5825 0.8128
vn 0.0000 -0.1803 0.9836
vn 0.0000 0.2563 0.9666
vn 0.0000 0.6440 0.7650
vn 0.0000 -0.5560 0.8312
vn 0.0000 -0.1668 0.9860
vn 0.0000 0.2516 0.9678
vn 0.0000 0.6259 0.7799
vn 0.0000 0.5581 -0.8298
vn 0.0000 0.1112 -0.9938
vn 0.0000 -0.3609 -0.9326
vn 0.0000 -0.7512 -0.6601
vn 0.0000 -0.9713 -0.2380
vn 0.0000 -0.9713 0.2380
vn 0.0000 -0.7512 0.6601
vn 0.0000 -0.3609 0.9326
vn 0.0000 0.1112 0.9938
vn 0.0000 0.5581 0.8298
vn 0.0000 0.6259 -0.7799
vn 0.0000 0.2516 -0.9678
vn 0.0000 -0.1668 -0.9860
vn 0.0000 -0.5560 -0.8312
vn 0.0000 0.6440 -0.7650
vn 0.0000 0.2563 -0.9666
vn 0.0000 -0.1803 -0.9836
vn 0.0000 -0.5825 -0.8128
vn 0.0000 0.6638 -0.7479
vn 0.0000 0.2456 -0.9694
vn 0.0000 -0.2277 -0.9737
vn 0.0000 -0.6499 -0.7600
vn 0.0000 0.6399 -0.7685
vn 0.0000 0.2294 -0.9733
vn 0.0000 -0.2294 -0.9733
vn 0.0000 -0.6399 -0.7685
vn 0.0000 0.6742 -0.7386
vn 0.0000 0.2501 -0.9682
vn 0.0000 -0.2321 -0.9727
vn 0.0000 -0.6603 -0.7510
vn 0.0000 -0.6478 0.7618
vn 0.0000 -0.2470 0.9690
vn 0.0000 0.2041 0.9790
vn 0.0000 0.6136 0.7896
vn 0.0000 0.8982 0.4395
vn 0.0000 1.0000 0.0000
vn 0.0000 0.8982 -0.4395
vn 0.0000 0.6136 -0.7896
vn 0.0000 0.2041 -0.9790
vn 0.0000 -0.2470 -0.9690
vn 0.0000 -0.6478 -0.7618
vn 1.0000 -0.0000 0.0000
vn -1.0000 0.0000 0.0000
vn 0.0000 -0.6603 0.7510
vn 0.0000 -0.2321 0.9727
vn 0.0000 0.2501 0.9682
vn 0.0000 0.6742 0.7386
vn 0.0000 -0.6399 0.7685
vn 0.0000 -0.2294 0.9733
vn 0.0000 0.2294 0.9733
vn 0.0000 0.6399 0.7685
vn 0.0000 -0.6499 0.7600
vn 0.0000 -0.2277 0.9737
vn 0.0000 0.2456 0.9694
vn 0.0000 0.6638 0.7479
usemtl None
s off
f 1//1 2//1 3//1
f 4//2 3//2 5//2
f 6//3 5//3 7//3
f 8//4 7//4 9//4
f 9//4 10//4 8//4
f 7//3 8//3 6//3
f 5//2 6//2 4//2
f 3//1 4//1 1//1
f 11//5 12//5 13//5
f 14//6 13//6 15//6
f 16//7 15//7 17//7
f 18//8 17//8 2//8
f 2//8 1//8 18//8
f 17//7 18//7 16//7
f 15//6 16//6 14//6
f 13//5 14//5 11//5
f 19//9 20//9 21//9
f 22//10 21//10 23//10
f 24//11 23//11 25//11
f 26//12 25//12 27//12
f 28//13 27//13 29//13
f 30//14 29//14 31//14
f 32//15 31//15 33//15
f 34//16 33//16 35//16
f 36//17 35//17 37//17
f 38//18 37//18 12//18
f 12//18 11//18 38//18
f 37//17 38//17 36//17
f 35//16 36//16 34//16
f 33//15 34//15 32//15
f 31//14 32//14 30//14
f 29//13 30//13 28//13
f 27//12 28//12 26//12
f 25//11 26//11 24//11
f 23//10 24//10 22//10
f 21//9 22//9 19//9
f 39//19 40//19 41//19
f 42//20 41//20 43//20
f 44//21 43//21 45//21
f 46//22 45//22 20//22
f 20//22 19//22 46//22
f 45//21 46//21 44//21
f 43//20 44//20 42//20
f 41//19 42//19 39//19
f 47//23 48//23 49//23
f 50//24 49//24 51//24
f 52//25 51//25 53//25
f 54//26 53//26 40//26
f 40//26 39//26 54//26
f 53//25 54//25 52//25
f 51//24 52//24 50//24
f 49//23 50//23 47//23
f 55//27 56//27 57//27
f 58//28 57//28 59//28
f 60//29 59//29 61//29
f 62//30 61//30 48//30
f 48//30 47//30 62//30
f 61//29 62//29 60//29
f 59//28 60//28 58//28
f 57//27 58//27 55//27
f 63//31 64//31 65//31
f 66//32 65//32 67//32
f 68//33 67//33 69//33
f 70//34 69//34 56//34
f 56//34 55//34 70//34
f 69//33 70//33 68//33
f 67//32 68//32 66//32
f 65//31 66//31 63//31
f 71//35 72//35 73//35
f 74//36 73//36 75//36
f 76//37 75//37 77//37
f 78//38 77//38 64//38
f 64//38 63//38 78//38
f 77//37 78//37 76//37
f 75//36 76//36 74//36
f 73//35 74//35 71//35
f 79//39 80//39 81//39
f 82//40 81//40 83//40
f 84//41 83//41 85//41
f 86//42 85//42 87//42
f 88//43 87//43 89//43
f 90//44 89//44 91//44
f 92//45 91//45 93//45
f 94//46 93//46 95//46
f 96//47 95//47 97//47
f 98//48 97//48 99//48
f 100//49 99//49 72//49
f 72//49 71//49 100//49
f 99//48 100//48 98//48
f 97//47 98//47 96//47
f 95//46 96//46 94//46
f 93//45 94//45 92//45
f 91//44 92//44 90//44
f 89//43 90//43 88//43
f 87//42 88//42 86//42
f 85//41 86//41 84//41
f 83//40 84//40 82//40
f 81//39 82//39 79//39
f 31//50 29//50 27//50
f 41//50 40//50 2//50
f 27//50 25//50 31//50
f 13//50 45//50 43//50
f 13//50 12//50 20//50
f 2//50 17//50 41//50
f 23//50 33//50 31//50
f 23//50 37//50 35//50
f 21//50 20//50 12//50
f 101//50 102//50 56//50
f 103//50 65//50 64//50
f 77//50 104//50 105//50
f 20//50 45//50 13//50
f 17//50 15//50 41//50
f 35//50 33//50 23//50
f 37//50 23//50 21//50
f 3//50 53//50 51//50
f 3//50 2//50 40//50
f 49//50 7//50 5//50
f 49//50 48//50 9//50
f 57//50 56//50 102//50
f 61//50 106//50 9//50
f 81//50 91//50 89//50
f 56//50 69//50 101//50
f 64//50 105//50 103//50
f 107//50 73//50 72//50
f 107//50 77//50 75//50
f 77//50 108//50 104//50
f 15//50 13//50 41//50
f 12//50 37//50 21//50
f 40//50 53//50 3//50
f 9//50 7//50 49//50
f 102//50 109//50 57//50
f 9//50 48//50 61//50
f 87//50 85//50 83//50
f 81//50 93//50 91//50
f 67//50 110//50 101//50
f 110//50 67//50 65//50
f 75//50 73//50 107//50
f 77//50 107//50 108//50
f 25//50 23//50 31//50
f 5//50 3//50 49//50
f 111//50 59//50 57//50
f 59//50 111//50 106//50
f 81//50 99//50 97//50
f 81//50 80//50 72//50
f 89//50 87//50 81//50
f 103//50 110//50 65//50
f 105//50 64//50 77//50
f 51//50 49//50 3//50
f 61//50 59//50 106//50
f 72//50 99//50 81//50
f 81//50 95//50 93//50
f 72//50 80//50 107//50
f 109//50 111//50 57//50
f 83//50 81//50 87//50
f 43//50 41//50 13//50
f 69//50 67//50 101//50
f 97//50 95//50 81//50
f 26//51 34//51 36//51
f 26//51 32//51 34//51
f 32//51 26//51 28//51
f 38//51 11//51 19//51
f 28//51 30//51 32//51
f 46//51 14//51 16//51
f 46//51 19//51 11//51
f 18//51 42//51 44//51
f 42//51 18//51 1//51
f 4//51 54//51 39//51
f 19//51 22//51 38//51
f 38//51 24//51 26//51
f 11//51 14//51 46//51
f 1//51 39//51 42//51
f 50//51 8//51 10//51
f 50//51 4//51 6//51
f 4//51 52//51 54//51
f 112//51 62//51 47//51
f 58//51 113//51 114//51
f 74//51 115//51 79//51
f 116//51 70//51 55//51
f 66//51 117//51 118//51
f 88//51 96//51 98//51
f 36//51 38//51 26//51
f 44//51 46//51 18//51
f 6//51 8//51 50//51
f 4//51 50//51 52//51
f 112//51 60//51 62//51
f 114//51 55//51 58//51
f 78//51 63//51 118//51
f 119//51 74//51 76//51
f 74//51 120//51 115//51
f 116//51 68//51 70//51
f 66//51 121//51 117//51
f 88//51 94//51 96//51
f 94//51 88//51 90//51
f 16//51 18//51 46//51
f 39//51 1//51 4//51
f 47//51 10//51 112//51
f 60//51 122//51 113//51
f 76//51 78//51 119//51
f 74//51 119//51 120//51
f 116//51 66//51 68//51
f 66//51 116//51 121//51
f 100//51 82//51 84//51
f 100//51 71//51 79//51
f 90//51 92//51 94//51
f 10//51 47//51 50//51
f 58//51 60//51 113//51
f 79//51 71//51 74//51
f 118//51 63//51 66//51
f 79//51 82//51 100//51
f 100//51 86//51 88//51
f 112//51 122//51 60//51
f 55//51 114//51 116//51
f 98//51 100//51 88//51
f 118//51 119//51 78//51
f 22//51 24//51 38//51
f 84//51 86//51 100//51
f 118//52 105//52 104//52
f 119//53 104//53 108//53
f 120//54 108//54 107//54
f 115//55 107//55 80//55
f 80//55 79//55 115//55
f 107//54 115//54 120//54
f 108//53 120//53 119//53
f 104//52 119//52 118//52
f 114//56 102//56 101//56
f 116//57 101//57 110//57
f 121//58 110//58 103//58
f 117//59 103//59 105//59
f 105//59 118//59 117//59
f 103//58 117//58 121//58
f 110//57 121//57 116//57
f 101//56 116//56 114//56
f 10//60 9//60 106//60
f 112//61 106//61 111//61
f 122//62 111//62 109//62
f 113//63 109//63 102//63
f 102//63 114//63 113//63
f 109//62 113//62 122//62
f 111//61 122//61 112//61
f 106//60 112//60 10//60
