# Blender v2.79 (sub 0) OBJ File: 'MyWals.blend'
# www.blender.org
mtllib WindowWallLateral.mtl
o WindowWallLateral_Shapr3D_Export_2023-01-26_23H01M.007
v -0.126742 1.429092 -0.322238
v -0.126742 1.429092 -1.331949
v -0.189531 1.360304 -1.331949
v -0.189531 1.360304 -0.322238
v -0.212825 1.270129 -1.331949
v -0.212825 1.270129 -0.322238
v -0.191208 1.179537 -1.331949
v -0.191208 1.179537 -0.322238
v -0.129707 1.109595 -1.331949
v -0.129707 1.109595 -0.322238
v -0.183415 1.045090 -1.331949
v -0.183415 1.045090 -0.322238
v -0.202668 0.963390 -1.331949
v -0.202668 0.963390 -0.322238
v -0.183415 0.881691 -1.331949
v -0.183415 0.881691 -0.322238
v -0.129707 0.817185 -1.331949
v -0.129707 0.817185 -0.322238
v -0.141023 1.705683 1.378685
v -0.141023 1.705683 -1.331949
v -0.185883 1.641345 -1.331949
v -0.185883 1.641345 1.378685
v -0.199041 1.564023 -1.331949
v -0.199041 1.564023 1.378685
v -0.177989 1.488468 -1.331949
v -0.177810 1.488134 -0.322238
v -0.177810 1.488134 0.355421
v -0.177989 1.488468 1.378685
v -0.126742 1.429092 1.378685
v -0.126742 1.429092 0.355421
v -0.189531 1.360304 0.355421
v -0.189531 1.360304 1.378685
v -0.212825 1.270129 0.355421
v -0.212825 1.270129 1.378685
v -0.191208 1.179537 0.355421
v -0.191208 1.179537 1.378685
v -0.129707 1.109595 0.355421
v -0.129707 1.109595 1.378685
v -0.183415 1.045090 0.355421
v -0.183415 1.045090 1.378685
v -0.202668 0.963390 0.355421
v -0.202668 0.963390 1.378685
v -0.183415 0.881691 0.355421
v -0.183415 0.881691 1.378685
v -0.129707 0.817185 0.355421
v -0.129707 0.817185 1.378685
v 0.101621 1.705683 1.378685
v 0.101621 1.705683 -1.331949
v 0.157272 1.780460 -1.331949
v 0.157272 1.780460 1.378685
v 0.171068 1.872646 -1.331949
v 0.171068 1.872646 1.378685
v 0.139746 1.960439 -1.331949
v 0.139746 1.960439 1.378685
v 0.070714 2.023075 -1.331949
v 0.070714 2.023075 1.378685
v -0.019701 2.045740 -1.331949
v -0.019701 2.045740 1.378685
v -0.110116 2.023075 -1.331949
v -0.110116 2.023075 1.378685
v -0.179147 1.960439 -1.331949
v -0.179147 1.960439 1.378685
v -0.210469 1.872646 -1.331949
v -0.210469 1.872646 1.378685
v -0.196673 1.780460 -1.331949
v -0.196673 1.780460 1.378685
v 0.138408 1.488134 -0.322238
v 0.138408 1.488134 0.355421
v 0.138588 1.488468 1.378685
v 0.138588 1.488468 -1.331949
v 0.159640 1.564023 -1.331949
v 0.159640 1.564023 1.378685
v 0.146481 1.641345 -1.331949
v 0.146481 1.641345 1.378685
v 0.087341 1.429092 -1.331949
v 0.087341 1.429092 -0.322238
v 0.087341 1.429092 1.378685
v 0.087341 1.429092 0.355421
v 0.090306 1.109595 -0.322238
v 0.090306 1.109595 -1.331949
v 0.151807 1.179537 -1.331949
v 0.151807 1.179537 -0.322238
v 0.173424 1.270129 -1.331949
v 0.173424 1.270129 -0.322238
v 0.150129 1.360304 -1.331949
v 0.150129 1.360304 -0.322238
v 0.090306 1.109595 1.378685
v 0.090306 1.109595 0.355421
v 0.151807 1.179537 0.355421
v 0.151807 1.179537 1.378685
v 0.173424 1.270129 0.355421
v 0.173424 1.270129 1.378685
v 0.150129 1.360304 0.355421
v 0.150129 1.360304 1.378685
v 0.090306 0.817185 1.378685
v 0.090306 0.817185 0.355421
v 0.144014 0.881691 0.355421
v 0.144014 0.881691 1.378685
v 0.163267 0.963390 0.355421
v 0.163267 0.963390 1.378685
v 0.144014 1.045090 0.355421
v 0.144014 1.045090 1.378685
v 0.090306 0.817185 -0.322238
v 0.090306 0.817185 -1.331949
v 0.144014 0.881691 -1.331949
v 0.144014 0.881691 -0.322238
v 0.163267 0.963390 -1.331949
v 0.163267 0.963390 -0.322238
v 0.144014 1.045090 -1.331949
v 0.144014 1.045090 -0.322238
v 0.152613 0.571220 0.355421
v -0.192015 0.571220 0.355421
v -0.212825 0.660221 0.355421
v 0.132390 0.539412 0.355421
v -0.171791 0.539412 0.355421
v -0.190380 0.748825 0.355421
v 0.150979 0.748825 0.355421
v 0.173424 0.660221 0.355421
v 0.150979 0.748825 -0.322238
v -0.190380 0.748825 -0.322238
v 0.152613 0.571220 -0.322238
v 0.173424 0.660221 -0.322238
v -0.192015 0.571220 -0.322238
v -0.171791 0.539412 -0.322238
v -0.212825 0.660221 -0.322238
v 0.132390 0.539412 -0.322238
v -0.212825 0.660221 -1.331949
v -0.192015 0.571220 -1.331949
v -0.190380 0.748825 -1.331949
v -0.190380 0.748825 1.378685
v -0.212825 0.660221 1.378685
v -0.132610 0.501754 -1.331949
v -0.132610 0.501754 1.378685
v -0.192015 0.571220 1.378685
v 0.150979 0.748825 -1.331949
v 0.173424 0.660221 -1.331949
v 0.152613 0.571220 -1.331949
v 0.152613 0.571220 1.378685
v 0.093209 0.501754 1.378685
v 0.093209 0.501754 -1.331949
v 0.173424 0.660221 1.378685
v 0.150979 0.748825 1.378685
v 0.104406 0.214479 1.378685
v 0.104406 0.214479 -1.331949
v 0.151834 0.280665 -1.331949
v 0.151834 0.280665 1.378685
v 0.166514 0.360755 -1.331949
v 0.166514 0.360755 1.378685
v 0.145644 0.439460 -1.331949
v 0.145644 0.439460 1.378685
v 0.117143 -0.078943 1.378685
v 0.117143 -0.078943 -1.331949
v 0.162905 -0.010529 -1.331949
v 0.162905 -0.010529 1.378685
v 0.176635 0.070627 -1.331949
v 0.176635 0.070627 1.378685
v 0.155925 0.150287 -1.331949
v 0.155925 0.150287 1.378685
v 0.074293 -0.409553 -1.331949
v -0.019701 -0.432587 -1.331949
v -0.113694 -0.409553 -1.331949
v -0.195326 0.150287 -1.331949
v -0.143807 0.214479 -1.331949
v -0.156544 -0.078943 -1.331949
v -0.186388 -0.345673 -1.331949
v 0.146987 -0.345673 -1.331949
v -0.202307 -0.010529 -1.331949
v -0.221312 -0.255420 -1.331949
v 0.171150 -0.159246 -1.331949
v 0.181911 -0.255420 -1.331949
v -0.210551 -0.159246 -1.331949
v -0.185046 0.439460 -1.331949
v -0.216037 0.070627 -1.331949
v -0.191235 0.280665 -1.331949
v -0.205915 0.360755 -1.331949
v 0.074293 -0.409553 1.378685
v -0.186388 -0.345673 1.378685
v -0.113694 -0.409553 1.378685
v -0.202307 -0.010529 1.378685
v -0.156544 -0.078943 1.378685
v -0.019701 -0.432587 1.378685
v -0.185046 0.439460 1.378685
v -0.195326 0.150287 1.378685
v -0.216037 0.070627 1.378685
v 0.146987 -0.345673 1.378685
v 0.181911 -0.255420 1.378685
v -0.210551 -0.159246 1.378685
v -0.221312 -0.255420 1.378685
v 0.171150 -0.159246 1.378685
v -0.191235 0.280665 1.378685
v -0.143807 0.214479 1.378685
v -0.205915 0.360755 1.378685
v 0.183597 0.539412 -0.322238
v -0.222998 0.539412 -0.322238
v -0.222998 1.488134 -0.322238
v 0.183597 1.488134 -0.322238
v -0.222998 1.488134 0.355421
v 0.183597 1.488134 0.355421
v -0.222998 0.539412 0.355421
v 0.183597 0.539412 0.355421
v 0.183597 0.607178 0.287655
v 0.183597 1.420368 0.287655
v 0.183597 0.607178 -0.254472
v 0.183597 1.420368 -0.254472
v -0.222998 1.420368 0.287655
v -0.222998 1.420368 -0.254472
v -0.222998 0.607178 -0.254472
v -0.222998 0.607178 0.287655
vn -0.7386 0.6742 0.0000
vn -0.9682 0.2501 0.0000
vn -0.9727 -0.2321 0.0000
vn -0.7510 -0.6603 0.0000
vn -0.7685 0.6399 0.0000
vn -0.9733 0.2294 0.0000
vn -0.9733 -0.2294 0.0000
vn -0.7685 -0.6399 0.0000
vn -0.8203 0.5719 0.0000
vn -0.9858 0.1678 0.0000
vn -0.9633 -0.2684 0.0000
vn -0.8810 -0.4731 0.0000
vn -0.8811 -0.4729 0.0000
vn -0.7570 -0.6534 0.0001
vn -0.7563 -0.6542 0.0000
vn -0.7570 -0.6534 -0.0001
vn 0.8022 -0.5970 0.0000
vn 0.9890 -0.1480 0.0000
vn 0.9419 0.3360 0.0000
vn 0.6720 0.7406 0.0000
vn 0.2432 0.9700 0.0000
vn -0.2432 0.9700 0.0000
vn -0.6720 0.7406 0.0000
vn -0.9419 0.3360 0.0000
vn -0.9890 -0.1480 0.0000
vn -0.8022 -0.5970 0.0000
vn 0.0000 -1.0000 0.0000
vn 0.9633 -0.2684 0.0000
vn 0.9858 0.1678 0.0000
vn 0.8203 0.5719 0.0000
vn 0.8811 -0.4730 0.0000
vn 0.8810 -0.4731 0.0000
vn 0.7570 -0.6534 -0.0001
vn 0.7563 -0.6542 0.0000
vn 0.7570 -0.6534 0.0001
vn 0.7510 -0.6603 0.0000
vn 0.9727 -0.2321 0.0000
vn 0.9682 0.2501 0.0000
vn 0.7386 0.6742 0.0000
vn 0.7685 -0.6399 0.0000
vn 0.9733 -0.2294 0.0000
vn 0.9733 0.2294 0.0000
vn 0.7685 0.6399 0.0000
vn 0.0000 0.0000 -1.0000
vn 0.0000 0.0000 1.0000
vn 0.0000 1.0000 0.0000
vn -0.9737 -0.2277 0.0000
vn -0.9694 0.2456 0.0000
vn -0.7479 0.6638 0.0000
vn -0.7600 -0.6499 -0.0053
vn -0.6930 -0.7210 0.0000
vn -0.8439 -0.5365 0.0000
vn -0.7600 -0.6499 0.0052
vn 0.7479 0.6638 0.0000
vn 0.9694 0.2456 0.0000
vn 0.9737 -0.2277 0.0000
vn 0.7600 -0.6499 0.0052
vn 0.6930 -0.7210 0.0000
vn 0.8439 -0.5365 0.0000
vn 0.7600 -0.6499 -0.0053
vn 0.8128 -0.5825 0.0000
vn 0.9836 -0.1803 0.0000
vn 0.9666 0.2563 0.0000
vn 0.7650 0.6440 0.0000
vn 0.8312 -0.5560 0.0000
vn 0.9860 -0.1668 0.0000
vn 0.9678 0.2516 0.0000
vn 0.7799 0.6259 0.0000
vn -0.8298 0.5581 0.0000
vn -0.9938 0.1112 0.0000
vn -0.9326 -0.3609 0.0000
vn -0.6601 -0.7512 0.0000
vn -0.2380 -0.9713 0.0000
vn 0.2380 -0.9713 0.0000
vn 0.6601 -0.7512 0.0000
vn 0.9326 -0.3609 0.0000
vn 0.9938 0.1112 0.0000
vn 0.8298 0.5581 0.0000
vn -0.7799 0.6259 0.0000
vn -0.9678 0.2516 0.0000
vn -0.9860 -0.1668 0.0000
vn -0.8312 -0.5560 0.0000
vn -0.7650 0.6440 0.0000
vn -0.9666 0.2563 0.0000
vn -0.9836 -0.1803 0.0000
vn -0.8128 -0.5825 0.0000
vn 1.0000 0.0000 0.0000
vn -1.0000 0.0000 0.0000
usemtl None
s off
f 1//1 2//1 3//1
f 4//2 3//2 5//2
f 6//3 5//3 7//3
f 8//4 7//4 9//4
f 9//4 10//4 8//4
f 7//3 8//3 6//3
f 5//2 6//2 4//2
f 3//1 4//1 1//1
f 10//5 9//5 11//5
f 12//6 11//6 13//6
f 14//7 13//7 15//7
f 16//8 15//8 17//8
f 17//8 18//8 16//8
f 15//7 16//7 14//7
f 13//6 14//6 12//6
f 11//5 12//5 10//5
f 19//9 20//9 21//9
f 22//10 21//10 23//10
f 24//11 23//11 25//11
f 25//12 26//12 27//12
f 27//13 28//13 25//13
f 27//14 29//14 28//14
f 27//15 30//15 29//15
f 2//15 1//15 26//15
f 26//16 25//16 2//16
f 25//11 28//11 24//11
f 23//10 24//10 22//10
f 21//9 22//9 19//9
f 29//1 30//1 31//1
f 32//2 31//2 33//2
f 34//3 33//3 35//3
f 36//4 35//4 37//4
f 37//4 38//4 36//4
f 35//3 36//3 34//3
f 33//2 34//2 32//2
f 31//1 32//1 29//1
f 38//5 37//5 39//5
f 40//6 39//6 41//6
f 42//7 41//7 43//7
f 44//8 43//8 45//8
f 45//8 46//8 44//8
f 43//7 44//7 42//7
f 41//6 42//6 40//6
f 39//5 40//5 38//5
f 47//17 48//17 49//17
f 50//18 49//18 51//18
f 52//19 51//19 53//19
f 54//20 53//20 55//20
f 56//21 55//21 57//21
f 58//22 57//22 59//22
f 60//23 59//23 61//23
f 62//24 61//24 63//24
f 64//25 63//25 65//25
f 66//26 65//26 20//26
f 20//26 19//26 66//26
f 65//25 66//25 64//25
f 63//24 64//24 62//24
f 61//23 62//23 60//23
f 59//22 60//22 58//22
f 57//21 58//21 56//21
f 55//20 56//20 54//20
f 53//19 54//19 52//19
f 51//18 52//18 50//18
f 49//17 50//17 47//17
f 27//27 26//27 67//27
f 67//27 68//27 27//27
f 69//28 70//28 71//28
f 72//29 71//29 73//29
f 74//30 73//30 48//30
f 70//31 69//31 68//31
f 68//32 67//32 70//32
f 67//33 75//33 70//33
f 67//34 76//34 75//34
f 77//34 78//34 68//34
f 68//35 69//35 77//35
f 48//30 47//30 74//30
f 73//29 74//29 72//29
f 71//28 72//28 69//28
f 79//36 80//36 81//36
f 82//37 81//37 83//37
f 84//38 83//38 85//38
f 86//39 85//39 75//39
f 75//39 76//39 86//39
f 85//38 86//38 84//38
f 83//37 84//37 82//37
f 81//36 82//36 79//36
f 87//36 88//36 89//36
f 90//37 89//37 91//37
f 92//38 91//38 93//38
f 94//39 93//39 78//39
f 78//39 77//39 94//39
f 93//38 94//38 92//38
f 91//37 92//37 90//37
f 89//36 90//36 87//36
f 95//40 96//40 97//40
f 98//41 97//41 99//41
f 100//42 99//42 101//42
f 102//43 101//43 88//43
f 88//43 87//43 102//43
f 101//42 102//42 100//42
f 99//41 100//41 98//41
f 97//40 98//40 95//40
f 103//40 104//40 105//40
f 106//41 105//41 107//41
f 108//42 107//42 109//42
f 110//43 109//43 80//43
f 80//43 79//43 110//43
f 109//42 110//42 108//42
f 107//41 108//41 106//41
f 105//40 106//40 103//40
f 31//44 30//44 78//44
f 39//44 37//44 88//44
f 101//44 43//44 41//44
f 43//44 97//44 96//44
f 43//44 101//44 99//44
f 78//44 93//44 31//44
f 89//44 35//44 33//44
f 35//44 89//44 88//44
f 111//44 112//44 113//44
f 111//44 114//44 115//44
f 116//44 117//44 118//44
f 117//44 116//44 45//44
f 41//44 39//44 101//44
f 99//44 97//44 43//44
f 93//44 91//44 31//44
f 88//44 37//44 35//44
f 115//44 112//44 111//44
f 45//44 96//44 117//44
f 96//44 45//44 43//44
f 33//44 31//44 89//44
f 118//44 111//44 116//44
f 91//44 89//44 31//44
f 88//44 101//44 39//44
f 27//44 68//44 78//44
f 78//44 30//44 27//44
f 113//44 116//44 111//44
f 8//45 10//45 79//45
f 4//45 86//45 76//45
f 16//45 18//45 103//45
f 79//45 82//45 8//45
f 4//45 84//45 86//45
f 103//45 106//45 16//45
f 110//45 12//45 14//45
f 12//45 110//45 79//45
f 84//45 6//45 8//45
f 76//45 1//45 4//45
f 106//45 108//45 16//45
f 79//45 10//45 12//45
f 119//45 103//45 18//45
f 120//45 121//45 122//45
f 121//45 123//45 124//45
f 121//45 120//45 125//45
f 4//45 6//45 84//45
f 14//45 16//45 110//45
f 122//45 119//45 120//45
f 125//45 123//45 121//45
f 108//45 110//45 16//45
f 124//45 126//45 121//45
f 26//45 1//45 76//45
f 18//45 120//45 119//45
f 82//45 84//45 8//45
f 76//45 67//45 26//45
f 124//46 115//46 114//46
f 114//46 126//46 124//46
f 125//47 127//47 128//47
f 120//48 129//48 127//48
f 18//49 17//49 129//49
f 46//49 45//49 116//49
f 130//48 116//48 113//48
f 131//47 113//47 112//47
f 128//50 132//50 124//50
f 132//51 133//51 115//51
f 115//51 124//51 132//51
f 134//52 112//52 115//52
f 115//53 133//53 134//53
f 124//52 123//52 128//52
f 112//47 134//47 131//47
f 113//48 131//48 130//48
f 116//49 130//49 46//49
f 129//49 120//49 18//49
f 127//48 125//48 120//48
f 128//47 123//47 125//47
f 119//54 135//54 104//54
f 122//55 136//55 135//55
f 121//56 137//56 136//56
f 138//57 139//57 114//57
f 140//58 126//58 114//58
f 114//58 139//58 140//58
f 137//59 121//59 126//59
f 126//60 140//60 137//60
f 138//56 111//56 118//56
f 141//55 118//55 117//55
f 142//54 117//54 96//54
f 96//54 95//54 142//54
f 117//55 142//55 141//55
f 118//56 141//56 138//56
f 114//59 111//59 138//59
f 136//56 122//56 121//56
f 135//55 119//55 122//55
f 104//54 103//54 119//54
f 143//61 144//61 145//61
f 146//62 145//62 147//62
f 148//63 147//63 149//63
f 150//64 149//64 140//64
f 140//64 139//64 150//64
f 149//63 150//63 148//63
f 147//62 148//62 146//62
f 145//61 146//61 143//61
f 151//65 152//65 153//65
f 154//66 153//66 155//66
f 156//67 155//67 157//67
f 158//68 157//68 144//68
f 144//68 143//68 158//68
f 157//67 158//67 156//67
f 155//66 156//66 154//66
f 153//65 154//65 151//65
f 159//44 160//44 161//44
f 162//44 163//44 144//44
f 153//44 152//44 164//44
f 165//44 166//44 159//44
f 144//44 157//44 162//44
f 164//44 167//44 153//44
f 161//44 165//44 159//44
f 168//44 169//44 170//44
f 171//44 164//44 152//44
f 172//44 132//44 140//44
f 157//44 155//44 162//44
f 167//44 173//44 153//44
f 170//44 166//44 168//44
f 169//44 168//44 171//44
f 140//44 149//44 172//44
f 145//44 174//44 175//44
f 174//44 145//44 144//44
f 11//44 9//44 80//44
f 85//44 3//44 2//44
f 7//44 81//44 80//44
f 173//44 162//44 153//44
f 152//44 169//44 171//44
f 149//44 147//44 172//44
f 144//44 163//44 174//44
f 129//44 135//44 136//44
f 129//44 17//44 104//44
f 137//44 128//44 127//44
f 128//44 137//44 140//44
f 80//44 109//44 11//44
f 105//44 15//44 13//44
f 15//44 105//44 104//44
f 2//44 75//44 85//44
f 7//44 83//44 81//44
f 49//44 48//44 20//44
f 49//44 61//44 59//44
f 165//44 168//44 166//44
f 175//44 172//44 145//44
f 104//44 135//44 129//44
f 140//44 132//44 128//44
f 109//44 107//44 11//44
f 104//44 17//44 15//44
f 83//44 5//44 3//44
f 80//44 9//44 7//44
f 21//44 20//44 48//44
f 73//44 25//44 23//44
f 25//44 70//44 75//44
f 25//44 73//44 71//44
f 20//44 65//44 49//44
f 49//44 55//44 53//44
f 59//44 57//44 49//44
f 147//44 145//44 172//44
f 127//44 129//44 137//44
f 13//44 11//44 105//44
f 7//44 5//44 83//44
f 23//44 21//44 73//44
f 71//44 70//44 25//44
f 65//44 63//44 49//44
f 57//44 55//44 49//44
f 136//44 137//44 129//44
f 85//44 83//44 3//44
f 75//44 2//44 25//44
f 53//44 51//44 49//44
f 107//44 105//44 11//44
f 63//44 61//44 49//44
f 48//44 73//44 21//44
f 155//44 153//44 162//44
f 176//45 177//45 178//45
f 179//45 180//45 151//45
f 178//45 181//45 176//45
f 182//45 150//45 139//45
f 151//45 154//45 179//45
f 158//45 183//45 184//45
f 183//45 158//45 143//45
f 176//45 185//45 177//45
f 186//45 187//45 188//45
f 187//45 189//45 151//45
f 36//45 38//45 87//45
f 130//45 142//45 95//45
f 190//45 191//45 143//45
f 146//45 182//45 192//45
f 182//45 148//45 150//45
f 154//45 156//45 179//45
f 143//45 191//45 183//45
f 188//45 177//45 186//45
f 187//45 186//45 189//45
f 50//45 58//45 60//45
f 66//45 19//45 47//45
f 87//45 90//45 36//45
f 94//45 32//45 34//45
f 32//45 94//45 77//45
f 40//45 102//45 87//45
f 40//45 98//45 100//45
f 44//45 46//45 95//45
f 98//45 40//45 42//45
f 134//45 138//45 141//45
f 134//45 133//45 139//45
f 95//45 46//45 130//45
f 192//45 190//45 146//45
f 182//45 146//45 148//45
f 184//45 179//45 158//45
f 151//45 180//45 187//45
f 50//45 56//45 58//45
f 50//45 52//45 54//45
f 50//45 64//45 66//45
f 28//45 69//45 72//45
f 28//45 29//45 77//45
f 74//45 22//45 24//45
f 22//45 74//45 47//45
f 90//45 92//45 36//45
f 77//45 29//45 32//45
f 100//45 102//45 40//45
f 42//45 44//45 98//45
f 139//45 138//45 134//45
f 130//45 131//45 142//45
f 139//45 133//45 182//45
f 185//45 186//45 177//45
f 54//45 56//45 50//45
f 50//45 62//45 64//45
f 77//45 69//45 28//45
f 47//45 19//45 22//45
f 34//45 36//45 94//45
f 95//45 98//45 44//45
f 131//45 134//45 142//45
f 156//45 158//45 179//45
f 47//45 50//45 66//45
f 24//45 28//45 74//45
f 87//45 38//45 40//45
f 143//45 146//45 190//45
f 72//45 74//45 28//45
f 141//45 142//45 134//45
f 92//45 94//45 36//45
f 60//45 62//45 50//45
f 180//69 164//69 171//69
f 187//70 171//70 168//70
f 188//71 168//71 165//71
f 177//72 165//72 161//72
f 178//73 161//73 160//73
f 181//74 160//74 159//74
f 176//75 159//75 166//75
f 185//76 166//76 170//76
f 186//77 170//77 169//77
f 189//78 169//78 152//78
f 152//78 151//78 189//78
f 169//77 189//77 186//77
f 170//76 186//76 185//76
f 166//75 185//75 176//75
f 159//74 176//74 181//74
f 160//73 181//73 178//73
f 161//72 178//72 177//72
f 165//71 177//71 188//71
f 168//70 188//70 187//70
f 171//69 187//69 180//69
f 191//79 163//79 162//79
f 183//80 162//80 173//80
f 184//81 173//81 167//81
f 179//82 167//82 164//82
f 164//82 180//82 179//82
f 167//81 179//81 184//81
f 173//80 184//80 183//80
f 162//79 183//79 191//79
f 133//83 132//83 172//83
f 182//84 172//84 175//84
f 192//85 175//85 174//85
f 190//86 174//86 163//86
f 163//86 191//86 190//86
f 174//85 190//85 192//85
f 175//84 192//84 182//84
f 172//83 182//83 133//83
f 193//44 194//44 195//44
f 195//44 196//44 193//44
f 196//46 195//46 197//46
f 197//46 198//46 196//46
f 198//45 197//45 199//45
f 199//45 200//45 198//45
f 200//27 199//27 194//27
f 194//27 193//27 200//27
f 200//87 201//87 202//87
f 200//87 193//87 203//87
f 203//87 201//87 200//87
f 193//87 196//87 204//87
f 198//87 202//87 204//87
f 204//87 203//87 193//87
f 202//87 198//87 200//87
f 204//87 196//87 198//87
f 199//88 197//88 205//88
f 197//88 195//88 206//88
f 206//88 205//88 197//88
f 194//88 207//88 206//88
f 206//88 195//88 194//88
f 199//88 208//88 207//88
f 207//88 194//88 199//88
f 205//88 208//88 199//88
f 201//44 208//44 205//44
f 205//44 202//44 201//44
f 202//27 205//27 206//27
f 206//27 204//27 202//27
f 204//45 206//45 207//45
f 207//45 203//45 204//45
f 203//46 207//46 208//46
f 208//46 201//46 203//46
